<?xml version="1.0" encoding="UTF-8" standalone="no"?>
<!DOCTYPE svg PUBLIC "-//W3C//DTD SVG 1.1//EN" "http://www.w3.org/Graphics/SVG/1.1/DTD/svg11.dtd">
<svg xmlns="http://www.w3.org/2000/svg" version="1.1" width="1000" height="1000">
  <g style="fill:none; fill-opacity:1; fill-rule:evenodd;
            stroke:#000000; stroke-width:1.5;
            stroke-linecap:round;stroke-linejoin:round;stroke-miterlimit:4;
            stroke-dasharray:none; stroke-opacity:1;"
     transform="matrix(1,0,0,-1,0,1000)">
    <path
      d="M 439 385 q -64 0 -64 -20 q 0 -18 56 -21 q -2 0 69 0 q 125 0 125 21 q 0
         20 -64 20 h -122 z
         M 439 463 q -32 0 -48 -3.5 t -16 -16.5 q 0 -15 26 -17 q 33 -3 99 -3 t
         100 3 q 25 2 25 17 q 0 20 -64 20 h -122 z
         M 671 409 q 0 -10 12 -46 q 4 -11 8.5 -27.5 t 4.5 -22.5 q 0 -43 -89 -52
         q 41 -15 64 -19 q 31 -5 58 -5 q 11 0 42.5 1.5 t 30.5 1.5 q 37 0 63 -23
         q 19 -17 40 -57 q -19 -28 -37 -57 q -21 -32 -50 -44 q -5 21 -48 29 q
         -10 2 -62 6 q -156 14 -208 66 q -49 -50 -149 -59 q -20 -2 -59 -7 q -48
         -4 -61 -6 q -45 -9 -49 -29 q -32 14 -61 63 q -13 22 -26 38 q 21 41 40
         57 q 25 23 63 23 q -1 0 30.5 -1.5 t 42.5 -1.5 q 59 0 121 24 q -88 9 -88
         52 q 0 14 13 45.5 t 13 45.5 q -76 94 -76 164 q 0 82 81 150 q 71 60 105
         65 q -27 32 -27 70 q 0 37 24.5 56.5 t 62.5 19.5 q 37 0 62 -20 t 25 -56
         q 0 -37 -27 -70 q 23 -6 71 -39 q 60 -42 91 -94 q 24 -39 24 -82 q 0 -73
         -75 -159 z
         M 523 525 v 58 h 43 v 47 h -43 v 54 h -46 v -54 h -43 v -47 h 43 v -58
         h 46 z
         M 500 878 q -13 0 -23 -9 t -10 -21 q 0 -13 10 -22 t 23 -9 q 31 0 31 31
         q 0 30 -31 30 z"
      style="fill:#000000; stroke:#000000;" />
   <path
      d="M 439 385 q -64 0 -64 -20 q 0 -18 56 -21 q -2 0 69 0 q 125 0 125 21 q 0
         20 -64 20 h -122 z
         M 439 463 q -32 0 -48 -3.5 t -16 -16.5 q 0 -15 26 -17 q 33 -3 99 -3 t
         100 3 q 25 2 25 17 q 0 20 -64 20 h -122 z
         M 523 525 v 58 h 43 v 47 h -43 v 54 h -46 v -54 h -43 v -47 h 43 v -58
         h 46 z
         M 500 878 q -13 0 -23 -9 t -10 -21 q 0 -13 10 -22 t 23 -9 q 31 0 31 31
         q 0 30 -31 30 z"
      style="fill:#ffffff; stroke:#000000;" />
  </g>
</svg>
