<?xml version="1.0" encoding="UTF-8" standalone="no"?>
<!DOCTYPE svg PUBLIC "-//W3C//DTD SVG 1.1//EN" "http://www.w3.org/Graphics/SVG/1.1/DTD/svg11.dtd">
<svg xmlns="http://www.w3.org/2000/svg" version="1.1" width="1000" height="1000">
  <g style="fill:none; fill-opacity:1; fill-rule:evenodd;
            stroke:#000000; stroke-width:1.5;
            stroke-linecap:round;stroke-linejoin:round;stroke-miterlimit:4;
            stroke-dasharray:none; stroke-opacity:1;"
     transform="matrix(1,0,0,-1,0,1000)">
    <path
      d="M 535 405 q 0 -22 -32 -22 q -35 0 -35 22 q 0 106 -69 169 q -59 55 -118
         55 q -51 0 -81 -27 t -30 -77 q 0 -35 44 -99 q 34 -50 63 -74 q 19 -16 66
         -16 q 49 0 158 18 q 110 -18 159 -18 q 48 0 66 16 q 34 30 67 79 q 40 59
         40 94 q 0 50 -30 77 t -81 27 q -57 0 -118 -56 q -69 -62 -69 -168 z
         M 806 526 q 0 -38 -44 -91 q -40 -47 -70 -62 q -25 -4 -50 -4 q -78 0 -77
         31 q 1 96 57 151 q 46 47 98 47 q 36 0 59 -18 q 27 -19 27 -54 z
         M 687 208 q 0 19 -69 27 q -63 6 -115 6 q -50 0 -88 -4 l -30 -3 q -68 -9
         -68 -25 q 0 -18 34 -18 q 14 0 55 4 q 74 8 96 8 q 25 0 75 -6 t 75 -6 q
         35 0 35 17 z
         M 757 178 q -2 -85 -255 -85 q -251 0 -253.5 84.5 t -24.5 142.5 q -13 34
         -52 87 q -49 65 -49 117 q 0 63 46 106 t 109 43 q 65 0 124 -48 q 0 29 3
         56 q 1 9 8 23 q 10 26 58 58 v 29 l -51 31 v 45 h 46 l 15 46 h 42 l 17
         -46 h 45 v -45 l -51 -31 v -29 q 48 -35 58 -58 q 6 -13 9 -36 q 1 -15 3
         -43 q 58 48 122 48 q 62 0 109 -42 t 47 -107 q 0 -52 -49 -118 q -13 -18
         -29 -41 q -29 -45 -40 -106 q -6 -31 -7 -81 z
         M 198 526 q 0 34 25 53 t 59 19 q 53 0 100 -48 q 54 -54 56 -150 q 1 -16
         -20.5 -23.5 t -55.5 -7.5 q -26 0 -51 4 q -33 16 -71 63 q -42 53 -42 90
         z"
      style="fill:#000000; stroke:#000000;" />
   <path
      d="M 535 405 q 0 -22 -32 -22 q -35 0 -35 22 q 0 106 -69 169 q -59 55 -118
         55 q -51 0 -81 -27 t -30 -77 q 0 -35 44 -99 q 34 -50 63 -74 q 19 -16 66
         -16 q 49 0 158 18 q 110 -18 159 -18 q 48 0 66 16 q 34 30 67 79 q 40 59
         40 94 q 0 50 -30 77 t -81 27 q -57 0 -118 -56 q -69 -62 -69 -168 z
         M 806 526 q 0 -38 -44 -91 q -40 -47 -70 -62 q -25 -4 -50 -4 q -78 0 -77
         31 q 1 96 57 151 q 46 47 98 47 q 36 0 59 -18 q 27 -19 27 -54 z
         M 687 208 q 0 19 -69 27 q -63 6 -115 6 q -50 0 -88 -4 l -30 -3 q -68 -9
         -68 -25 q 0 -18 34 -18 q 14 0 55 4 q 74 8 96 8 q 25 0 75 -6 t 75 -6 q
         35 0 35 17 z
         M 198 526 q 0 34 25 53 t 59 19 q 53 0 100 -48 q 54 -54 56 -150 q 1 -16
         -20.5 -23.5 t -55.5 -7.5 q -26 0 -51 4 q -33 16 -71 63 q -42 53 -42 90
         z"
      style="fill:#ffffff; stroke:#000000;" />
  </g>
</svg>
