<?xml version="1.0" encoding="UTF-8" standalone="no"?>
<!DOCTYPE svg PUBLIC "-//W3C//DTD SVG 1.1//EN" "http://www.w3.org/Graphics/SVG/1.1/DTD/svg11.dtd">
<svg xmlns="http://www.w3.org/2000/svg" version="1.1" width="1000" height="1000">
  <g style="fill:none; fill-opacity:1; fill-rule:evenodd;
            stroke:#000000; stroke-width:1.5;
            stroke-linecap:round;stroke-linejoin:round;stroke-miterlimit:4;
            stroke-dasharray:none; stroke-opacity:1;"
     transform="matrix(1,0,0,-1,0,1000)">
    <path
      d="M 234 101 q -2 22 -2 58 q 0 92 33 157 q 35 71 135 121 q -33 10 -53 44 q
         -18 31 -18 68 q 0 84 86 119 q -22 37 -22 71 q 0 43 34 71 q 31 26 74 26
         t 75 -27.5 t 32 -69.5 q 0 -34 -22 -71 q 46 -18 66 -50 t 20 -69 q 0 -36
         -19 -69 t -51 -43 q 100 -51 135 -122 q 32 -63 32 -156 q 0 -36 -2 -58 h
         -533 z"
      style="fill:#000000; stroke:#000000;" />
  </g>
</svg>
