<?xml version="1.0" encoding="UTF-8" standalone="no"?>
<!DOCTYPE svg PUBLIC "-//W3C//DTD SVG 1.1//EN" "http://www.w3.org/Graphics/SVG/1.1/DTD/svg11.dtd">
<svg xmlns="http://www.w3.org/2000/svg" version="1.1" width="1000" height="1000">
  <g style="fill:none; fill-opacity:1; fill-rule:evenodd;
            stroke:#000000; stroke-width:1.5;
            stroke-linecap:round;stroke-linejoin:round;stroke-miterlimit:4;
            stroke-dasharray:none; stroke-opacity:1;"
     transform="matrix(1,0,0,-1,0,1000)">
    <path
      d="M 293 224 q 0 -19 28 -19 q 16 0 45.5 3 t 41.5 3 l 75 3 q 11 1 19 1 q 28
         0 73 -4 q 54 -3 73 -4 q 4 0 14.5 -1 t 15.5 -1 q 28 0 28 20 t -64 31 q
         -38 7 -103 9 h -39 q -137 0 -189 -22 q -18 -8 -18 -19 z
         M 136 747 q -13 0 -22 -9 t -9 -22 t 9 -22.5 t 22 -9.5 q 30 0 30 32 q 0
         31 -30 31 z
         M 300 826 q -32 0 -32 -31 q 0 -32 32 -32 q 30 0 30 32 q 0 31 -30 31 z
         M 699 826 q -12 0 -21 -9.5 t -9 -21.5 q 0 -32 30 -32 q 31 0 31 32 q 0
         31 -31 31 z
         M 862 747 q -30 0 -30 -31 q 0 -32 30 -32 q 31 0 31 32 q 0 13 -9 22 t
         -22 9 z
         M 771 150 q 0 -36 -128 -49 q -57 -5 -89 -7 l -33 -1 h -22 q -151 0 -233
         26 q -38 12 -38 31 q 0 39 20 82 q 13 26 13 39 q 0 27 -59 95 q -34 40
         -34.5 47 t -7.5 34 l -16 63 q -7 27 -11 48 q -7 41 -10 81 q -58 26 -58
         77 q 0 29 21 49.5 t 50 20.5 q 28 0 49 -20.5 t 21 -49.5 q 0 -5 -3 -20 q
         -3 -20 -3 -28 q 0 -54 80 -137 q 7 61 7 107 q 0 56 -11 81 q -8 19 -24 29
         q -23 14 -23 49 q 0 29 20.5 49.5 t 50.5 20.5 q 28 0 49 -20.5 t 21 -49.5
         q 0 -7 -4 -25 t -4 -29 q 0 -73 68 -214 q 8 35 21 104 q 6 46 6 77 q 0 52
         -19 96 q -8 17 -8 25 q 0 29 20.5 49.5 t 49.5 20.5 q 28 0 48 -20.5 t 20
         -49.5 q 0 -10 -9 -32 q -11 -27 -13 -34 q -4 -20 -4 -55 q 0 -55 14 -125
         q 5 -26 12 -56 q 67 143 67 214 q 0 10 -3.5 27.5 t -3.5 26.5 q 0 30 20.5
         50 t 50.5 20 q 29 0 49.5 -21 t 20.5 -49 q 0 -35 -23 -50 q -27 -18 -32
         -61 q -3 -20 -3 -49 q 0 -44 7 -106 q 80 83 80 137 q 0 6 -3 28 q -3 16
         -3 20 q 0 29 21 49.5 t 49 20.5 q 29 0 50 -20.5 t 21 -49.5 q 0 -50 -58
         -77 q -3 -38 -11 -82 q -9 -50 -31 -129 q -2 -8 -2.5 -15 t -19.5 -29 l
         -15 -18 q -59 -70 -59 -95 q 0 -11 12 -38 q 14 -32 17 -40 q 5 -18 5 -43
         z
         M 500 864 q -13 0 -22 -9 t -9 -22 q 0 -12 9 -21.5 t 22 -9.5 q 30 0 30
         31 q 0 13 -9 22 t -21 9 z
         M 725 377 q 0 22 -69 32 q -59 8 -156 8 t -157 -9 q -69 -11 -69 -32 q 0
         -18 32 -18 q 17 0 47 2 q 34 3 47 4 l 81 3 h 21 q 43 0 132 -6 q 16 0 48
         -2 q 9 -1 13 -1 q 30 0 30 19 z"
      style="fill:#000000; stroke:#000000;" />
   <path
      d="M 293 224 q 0 -19 28 -19 q 16 0 45.5 3 t 41.5 3 l 75 3 q 11 1 19 1 q 28
         0 73 -4 q 54 -3 73 -4 q 4 0 14.5 -1 t 15.5 -1 q 28 0 28 20 t -64 31 q
         -38 7 -103 9 h -39 q -137 0 -189 -22 q -18 -8 -18 -19 z
         M 136 747 q -13 0 -22 -9 t -9 -22 t 9 -22.5 t 22 -9.5 q 30 0 30 32 q 0
         31 -30 31 z
         M 300 826 q -32 0 -32 -31 q 0 -32 32 -32 q 30 0 30 32 q 0 31 -30 31 z
         M 699 826 q -12 0 -21 -9.5 t -9 -21.5 q 0 -32 30 -32 q 31 0 31 32 q 0
         31 -31 31 z
         M 862 747 q -30 0 -30 -31 q 0 -32 30 -32 q 31 0 31 32 q 0 13 -9 22 t
         -22 9 z
         M 500 864 q -13 0 -22 -9 t -9 -22 q 0 -12 9 -21.5 t 22 -9.5 q 30 0 30
         31 q 0 13 -9 22 t -21 9 z
         M 725 377 q 0 22 -69 32 q -59 8 -156 8 t -157 -9 q -69 -11 -69 -32 q 0
         -18 32 -18 q 17 0 47 2 q 34 3 47 4 l 81 3 h 21 q 43 0 132 -6 q 16 0 48
         -2 q 9 -1 13 -1 q 30 0 30 19 z"
      style="fill:#ffffff; stroke:#000000;" />
  </g>
</svg>
