<?xml version="1.0" encoding="UTF-8" standalone="no"?>
<!DOCTYPE svg PUBLIC "-//W3C//DTD SVG 1.1//EN" "http://www.w3.org/Graphics/SVG/1.1/DTD/svg11.dtd">
<svg xmlns="http://www.w3.org/2000/svg" version="1.1" width="1000" height="1000">
  <g style="fill:none; fill-opacity:1; fill-rule:evenodd;
            stroke:#000000; stroke-width:1.5;
            stroke-linecap:round;stroke-linejoin:round;stroke-miterlimit:4;
            stroke-dasharray:none; stroke-opacity:1;"
     transform="matrix(1,0,0,-1,0,1000)">
    <path
      d="M 218 103 l -24 24 v 88 l 127 125 v 249 l -98 96 v 112 l 35 35 h 89 l
         22 -22 v -31 h 48 v 31 l 21 22 h 139 l 21 -22 v -31 h 48 v 31 l 21 22 h
         90 l 35 -35 v -112 l -98 -96 v -249 l 127 -125 v -88 l -25 -24 h -578 z
         M 366 369 v -42 h 283 v 42 h -283 z
         M 366 594 v -42 h 283 v 42 h -283 z"
      style="fill:#000000; stroke:#000000;" />
   <path
      d="M 366 369 v -42 h 283 v 42 h -283 z
         M 366 594 v -42 h 283 v 42 h -283 z"
      style="fill:#ffffff; stroke:#000000;" />
  </g>
</svg>
