<?xml version="1.0" encoding="UTF-8" standalone="no"?>
<!DOCTYPE svg PUBLIC "-//W3C//DTD SVG 1.1//EN" "http://www.w3.org/Graphics/SVG/1.1/DTD/svg11.dtd">
<svg xmlns="http://www.w3.org/2000/svg" version="1.1" width="1000" height="1000">
  <g style="fill:none; fill-opacity:1; fill-rule:evenodd;
            stroke:#000000; stroke-width:1.5;
            stroke-linecap:round;stroke-linejoin:round;stroke-miterlimit:4;
            stroke-dasharray:none; stroke-opacity:1;"
     transform="matrix(1,0,0,-1,0,1000)">
    <path
      d="M 503 93 q -249 0 -253 84 q -4 92 -24 144 q -14 35 -53 87 q
         -27 36 -35 54 q -14 28 -14 62 q 0 47 28 85.5 t 72 54.5 q 31
         11 56 10 q 65 -1 123 -48 l 1 -1 q 0 34 3 57 q 0 9 8 23 q 10
         25 58 58 v 30 l -51 30 v 45 h 46 l16 47 h 38 l 16 -47 h 46 v
         -45 l -51 -30 v -30 q 45 -30 59 -58 q 7 -16 7.5 -24.5 t 1.5
         -27 t 1 -28.5 l 1 1 q 57 47 123 48 q 44 1 84.5 -24 t 58.5 -66
         q 13 -28 13 -60 q 0 -53 -48 -116 q -21 -28 -30 -42 q -15 -22
         -23 -45 q -22 -54 -25 -144 q -2 -84 -253 -84 z
         M 503 514 q 1 2 8 13 q 17 24 27 43 t 15 37 q 3 27 3 36 q 0 74
         -52 74 q -54 0 -54 -74 q 0 -13 3 -36 q 10 -35 42 -80 q 8 -11
         8 -13 z
         M 837 516 q 0 56 -38 87 q -32 26 -73 26 q -55 0 -117 -55 q
         -74 -64 -83 -173 q 0 -9 46 -19 q 39 -8 131 -10 q 16 -1 29 -1
         h 4 h 18 q 5 8 14.5 19.5 t 23.5 28.5 q 27 39 38 65 q 7 19 7
         32 z
         M 503 348 q -25 -11 -90 -17 q -34 -2 -102 -7 l -37 -3 q 13
         -49 17 -105 q 87 28 212 28 q 126 0 213 -28 q 3 61 16 105 l
         -36 3 q -35 2 -103 7 q -36 4 -46 5 q -26 4 -44 12 z
         M 169 516 q 0 -25 26 -67 q 13 -20 21 -30 l 10 -14 q 13 -14 26
         -34 h 22 q 52 0 131 8 q 76 7 76 22 q -10 109 -84 173 q -61 55
         -117 55 q -17 0 -37 -7 q -43 -11 -63 -55 q -11 -23 -11 -51 z
         M 503 138 q 62 0 123 8 q 51 6 51 16 q 0 16 -46 23 q -67 9
         -127 9 q -61 0 -128 -9 q -47 -7 -47 -23 q 0 -14 107 -22 q 31
         -2 67 -2 z"
      style="fill:#000000; stroke:#000000;" />
   <path
      d="M 503 514 q 1 2 8 13 q 17 24 27 43 t 15 37 q 3 27 3 36 q 0 74
         -52 74 q -54 0 -54 -74 q 0 -13 3 -36 q 10 -35 42 -80 q 8 -11
         8 -13 z
         M 837 516 q 0 56 -38 87 q -32 26 -73 26 q -55 0 -117 -55 q
         -74 -64 -83 -173 q 0 -9 46 -19 q 39 -8 131 -10 q 16 -1 29 -1
         h 4 h 18 q 5 8 14.5 19.5 t 23.5 28.5 q 27 39 38 65 q 7 19 7
         32 z
         M 503 348 q -25 -11 -90 -17 q -34 -2 -102 -7 l -37 -3 q 13
         -49 17 -105 q 87 28 212 28 q 126 0 213 -28 q 3 61 16 105 l
         -36 3 q -35 2 -103 7 q -36 4 -46 5 q -26 4 -44 12 z
         M 169 516 q 0 -25 26 -67 q 13 -20 21 -30 l 10 -14 q 13 -14 26
         -34 h 22 q 52 0 131 8 q 76 7 76 22 q -10 109 -84 173 q -61 55
         -117 55 q -17 0 -37 -7 q -43 -11 -63 -55 q -11 -23 -11 -51 z
         M 503 138 q 62 0 123 8 q 51 6 51 16 q 0 16 -46 23 q -67 9
         -127 9 q -61 0 -128 -9 q -47 -7 -47 -23 q 0 -14 107 -22 q 31
         -2 67 -2 z"
      style="fill:#ffffff; stroke:#000000;" />
  </g>
</svg>
