<?xml version="1.0" encoding="UTF-8" standalone="no"?>
<!DOCTYPE svg PUBLIC "-//W3C//DTD SVG 1.1//EN" "http://www.w3.org/Graphics/SVG/1.1/DTD/svg11.dtd">
<svg xmlns="http://www.w3.org/2000/svg" version="1.1" width="1000" height="1000">
  <g style="fill:none; fill-opacity:1; fill-rule:evenodd;
            stroke:#000000; stroke-width:1.5;
            stroke-linecap:round;stroke-linejoin:round;stroke-miterlimit:4;
            stroke-dasharray:none; stroke-opacity:1;"
     transform="matrix(1,0,0,-1,0,1000)">
    <path
      d="M 208 395 q 18 0 18 -24 q 0 -31 -31 -31 q 2 0 -4 1 h -4 q -5 5 -5 19 q
         0 35 26 35 z
         M 291 548 q -10 7 -10 21 q 0 23 24 43 t 48 20 q 13 0 25 -7 q 4 -5 4 -10
         q 0 -21 -30 -44.5 t -54 -23.5 h -1 q -2 1 -3 1 h -2 h -1 z
         M 308 782 q 5 -12 5 -23 q 0 -4 -3 -20 h 1 q 7 1 31 10 q 11 2 22 10 q
         -19 11 -27 14 t -28 9 h -1 z
         M 160 353 q 5 -20 24 -34.5 t 39 -14.5 h 3 q 5 0 26 14 q 10 6 14 6 q 1
         -1 4 -1 l 1 -1 q 6 0 6 -6 q 0 -2 -3.5 -11 t -3.5 -13 q 0 -11 17 -11 q 3
         1 31 44 q 37 55 88 90 q 30 22 69 39 q 1 11 9 37 q 15 49 40 81 q 11 14
         20 14 q 3 0 7.5 -3 t 4.5 -13 t -12 -42 q -19 -49 -19 -72 q 0 -7 2 -16 q
         0 -89 -75 -186 q -49 -65 -55 -108 h 412 q 5 44 5 85 q 0 201 -99 340 q
         -26 37 -62 71 q -49 46 -79 46 q -1 -1 -2 -1 h -3 q -25 3 -28 3 q -9 0
         -16 -2 q -2 0 -6 -1 h -7 h -6 q -5 1 -7 1 q -9 3 -15 26 q -3 17 -11 49
         q -3 11 -12 20 q -16 -47 -93 -70 q -42 -13 -57 -26 q -13 -43 -82 -177 q
         -11 -21 -48 -101 q -18 -37 -21 -56 z
         M 860 100 h -524 q 3 55 23 99 q 16 33 56 85 q 31 40 41 57 q 18 31 21 67
         q -59 -26 -89 -56.5 t -55 -72.5 q -13 -22 -20 -31 q -10 -9 -20 -9 q -50
         5 -55 35 q -11 -6 -25 -6 q -58 0 -95 74 q 8 47 47 131 q 9 20 29 61 q 35
         72 44 92 q 24 53 35 96 q 3 18 3 31 q 0 7 -8 69 h 2 h 3 h 4 l 1 1 q 55 0
         116 -34 q 13 -8 13 -9 q 34 59 56 59 q 27 -14 44 -36 q 12 -19 25 -65 q
         10 2 21 2 q 101 0 198 -128 q 114 -149 114 -407 q 0 -52 -5 -105 z"
      style="fill:#000000; stroke:#000000;" />
   <path
      d="M 208 395 q 18 0 18 -24 q 0 -31 -31 -31 q 2 0 -4 1 h -4 q -5 5 -5 19 q
         0 35 26 35 z
         M 291 548 q -10 7 -10 21 q 0 23 24 43 t 48 20 q 13 0 25 -7 q 4 -5 4 -10
         q 0 -21 -30 -44.5 t -54 -23.5 h -1 q -2 1 -3 1 h -2 h -1 z
         M 308 782 q 5 -12 5 -23 q 0 -4 -3 -20 h 1 q 7 1 31 10 q 11 2 22 10 q
         -19 11 -27 14 t -28 9 h -1 z
         M 160 353 q 5 -20 24 -34.5 t 39 -14.5 h 3 q 5 0 26 14 q 10 6 14 6 q 1
         -1 4 -1 l 1 -1 q 6 0 6 -6 q 0 -2 -3.5 -11 t -3.5 -13 q 0 -11 17 -11 q 3
         1 31 44 q 37 55 88 90 q 30 22 69 39 q 1 11 9 37 q 15 49 40 81 q 11 14
         20 14 q 3 0 7.5 -3 t 4.5 -13 t -12 -42 q -19 -49 -19 -72 q 0 -7 2 -16 q
         0 -89 -75 -186 q -49 -65 -55 -108 h 412 q 5 44 5 85 q 0 201 -99 340 q
         -26 37 -62 71 q -49 46 -79 46 q -1 -1 -2 -1 h -3 q -25 3 -28 3 q -9 0
         -16 -2 q -2 0 -6 -1 h -7 h -6 q -5 1 -7 1 q -9 3 -15 26 q -3 17 -11 49
         q -3 11 -12 20 q -16 -47 -93 -70 q -42 -13 -57 -26 q -13 -43 -82 -177 q
         -11 -21 -48 -101 q -18 -37 -21 -56 z"
      style="fill:#ffffff; stroke:#000000;" />
  </g>
</svg>
