<?xml version="1.0" encoding="UTF-8" standalone="no"?>
<!DOCTYPE svg PUBLIC "-//W3C//DTD SVG 1.1//EN" "http://www.w3.org/Graphics/SVG/1.1/DTD/svg11.dtd">
<svg xmlns="http://www.w3.org/2000/svg" version="1.1" width="1000" height="1000">
  <g style="fill:none; fill-opacity:1; fill-rule:evenodd;
            stroke:#000000; stroke-width:1.5;
            stroke-linecap:round;stroke-linejoin:round;stroke-miterlimit:4;
            stroke-dasharray:none; stroke-opacity:1;"
     transform="matrix(1,0,0,-1,0,1000)">
    <path
      d="M 502 376 h 14 q 2 0 7 1 h 7 q 5 0 45 -2 q 14 0 62 -4 q 39 -3 62 -3 t
         23 6 q 0 1 -1 3v1v1 q 0 27 -99 42 q -66 9 -119 9 t -119 -9 q -98 -14
         -98 -42v-2 q -2 -1 -2 -3 q 0 -6 23 -6 q 6 0 63 4 q 67 5 105 5 h 7 q 5
         -1 7 -1 h 13 z
         M 706 320 q -103 13 -203 13 q -93 0 -158 -8 q -24 -2 -44
         -5 q 15 -12 15 -49 q 0 -22 -8 -28 q 83 14 195 14 q 113 0 195 -14 q -7 6
         -7 28 q 0 37 15 49 z
         M 503 213 q -72 0 -142 -7 q -62 -5 -62 -28 q 0 -31
         204 -31 t 204 31 q 0 10 -16 18 q -32 12 -109 15 q -41 2 -79 2 z
         M 503 867 q -31 0 -31 -31 q 0 -32 31 -32 q 30 0 30 32 q 0 31 -30 31 z
         M 503 903 q 29 0 49 -20.5 t 20 -49.5 q 0 -9 -10 -32 q -11 -28 -12 -34 q -5
         -20 -5 -54 q 0 -25 7 -78 q 5 -41 20 -103 q 67 142 67 214 q 0 17 -5 38 q
         -2 11 -2 16 q 0 29 20.5 49.5 t 48.5 20.5 q 29 0 50 -20.5 t 21 -49.5 q 0
         -33 -22 -51 q -27 -17 -33 -61 q -2 -19 -2 -49 q 0 -39 6 -105 q 81 82 81
         136 q 0 8 -4 28 q -2 15 -2 21 q 0 28 20.5 49 t 48.5 21 q 29 0 50 -21 t
         21 -49 q 0 -51 -58 -77 q -2 -36 -11 -83 q -5 -29 -26 -110 l -8 -33 q 0
         -18 -40 -59 q -53 -54 -53 -84 q 0 -12 12 -37 q 17 -35 18 -37 q 5 -14 5
         -34 q 0 -3 -1 -8.5 t -1 -8.5v-2 l 1 -1 q 0 -31 -128 -43 q -56 -5 -89 -6
         q -37 -1 -55 -1 q -3 0 -19 1 q -19 1 -35 1 q -115 3 -179 20 q -38 11
         -38 28 l 1 1v2 q 0 1 -1 4v5v8 q 0 28 19 67 q 14 29 14 41 q 0 21 -21 47
         q -21 23 -61 70 q -10 14 -10 26 l -28 112 q -14 65 -17 114 q -58 26 -58
         77 q 0 28 21 49 t 49 21 q 29 0 49.5 -21 t 20.5 -49 q 0 -5 -2 -21 q -4
         -20 -4 -28 q 0 -54 80 -136 q 7 66 7 105 q 0 59 -11 82 q -5 10 -11 17 q
         -4 4 -13 12 q -13 8 -17 19 q -6 8 -6 31 q 0 29 21 49.5 t 50 20.5 t 49.5
         -20.5 t 20.5 -49.5 q 0 -4 -2 -16 q -5 -21 -5 -38 q 0 -71 67 -214 q 27
         114 27 181 q 0 49 -19 95 q -8 17 -8 25 q 0 29 21 49.5 t 49 20.5 z
         M 865 749 q -12 0 -21 -9 t -9 -21 q 0 -13 9 -22.5 t 21 -9.5 q 31 0 31 32 q 0
         30 -31 30 z
         M 701 829 q -12 0 -21 -9.5 t -9 -21.5 q 0 -13 9 -22.5 t 21
         -9.5 q 32 0 32 32 q 0 31 -32 31 z
         M 303 829 q -31 0 -31 -31 q 0 -32 31 -32 q 30 0 30 32 q 0 31 -30 31 z
         M 139 749 q -31 0 -31 -30 q 0 -32 31 -32 q 30 0 30 32 q 0 12 -9 21 t -21 9 z
         M 503 669 q -4 -24 -9 -45 l -8
         -36 q -12 -49 -28 -78 q -3 -6 -10 -15 t -9 -16 q -2 3 -12 15 q -8 9
         -19.5 22.5 t -19.5 27.5 q -30 54 -57 134 q 2 -14 2 -36 t -7 -93 q -1
         -11 -5 -33 l -9 -56 q -67 39 -131 128 q 12 -63 22 -103 q 9 -35 10 -38 q
         8 -25 19 -29 q 104 59 271 59 q 168 0 271 -59 q 19 6 41 118 l 6 30 l 4
         22 q -64 -89 -130 -128 l -4 19 q -18 104 -18 152 q 0 25 3 47 q -27 -80
         -58 -134 q -12 -21 -39 -50 q -10 -12 -12 -15 q -6 11 -19 31 q -5 9
         -12.5 27.5 t -23.5 87.5 q -4 21 -9 44 z"
      style="fill:#000000; stroke:#000000;" />
   <path
      d="M 502 376 h 14 q 2 0 7 1 h 7 q 5 0 45 -2 q 14 0 62 -4 q 39 -3 62 -3 t
         23 6 q 0 1 -1 3v1v1 q 0 27 -99 42 q -66 9 -119 9 t -119 -9 q -98 -14
         -98 -42v-2 q -2 -1 -2 -3 q 0 -6 23 -6 q 6 0 63 4 q 67 5 105 5 h 7 q 5
         -1 7 -1 h 13 z
         M 706 320 q -103 13 -203 13 q -93 0 -158 -8 q -24 -2 -44
         -5 q 15 -12 15 -49 q 0 -22 -8 -28 q 83 14 195 14 q 113 0 195 -14 q -7 6
         -7 28 q 0 37 15 49 z
         M 503 213 q -72 0 -142 -7 q -62 -5 -62 -28 q 0 -31
         204 -31 t 204 31 q 0 10 -16 18 q -32 12 -109 15 q -41 2 -79 2 z
         M 503 867 q -31 0 -31 -31 q 0 -32 31 -32 q 30 0 30 32 q 0 31 -30 31 z
         M 865 749 q -12 0 -21 -9 t -9 -21 q 0 -13 9 -22.5 t 21 -9.5 q 31 0 31 32 q 0
         30 -31 30 z
         M 701 829 q -12 0 -21 -9.5 t -9 -21.5 q 0 -13 9 -22.5 t 21
         -9.5 q 32 0 32 32 q 0 31 -32 31 z
         M 303 829 q -31 0 -31 -31 q 0 -32 31 -32 q 30 0 30 32 q 0 31 -30 31 z
         M 139 749 q -31 0 -31 -30 q 0 -32 31 -32 q 30 0 30 32 q 0 12 -9 21 t -21 9 z
         M 503 669 q -4 -24 -9 -45 l -8
         -36 q -12 -49 -28 -78 q -3 -6 -10 -15 t -9 -16 q -2 3 -12 15 q -8 9
         -19.5 22.5 t -19.5 27.5 q -30 54 -57 134 q 2 -14 2 -36 t -7 -93 q -1
         -11 -5 -33 l -9 -56 q -67 39 -131 128 q 12 -63 22 -103 q 9 -35 10 -38 q
         8 -25 19 -29 q 104 59 271 59 q 168 0 271 -59 q 19 6 41 118 l 6 30 l 4
         22 q -64 -89 -130 -128 l -4 19 q -18 104 -18 152 q 0 25 3 47 q -27 -80
         -58 -134 q -12 -21 -39 -50 q -10 -12 -12 -15 q -6 11 -19 31 q -5 9
         -12.5 27.5 t -23.5 87.5 q -4 21 -9 44 z"
      style="fill:#ffffff; stroke:#000000;" />
  </g>
</svg>
